<?xml version="1.0" encoding="UTF-8" standalone="no"?>
<svg width="128px" height="27px" viewBox="0 0 128 27" version="1.1" xmlns="http://www.w3.org/2000/svg" xmlns:xlink="http://www.w3.org/1999/xlink">
    <g id="Page-1" stroke="none" stroke-width="1" fill="none" fill-rule="evenodd">
        <path d="M121.323716,22.3440872 L117.326343,12.426523 L120.068038,12.426523 L122.642309,19.5043457 L125.258305,12.426523 L128,12.426523 L122.160835,27 L119.440199,27 L121.323716,22.3440872 Z M107.779331,19.5670204 C107.779331,17.2287552 109.683776,16.5395027 111.965055,16.5395027 L114.622907,16.5395027 C114.622907,15.2450336 113.995068,14.4307708 112.509182,14.4307708 C111.483712,14.4307708 110.604606,15.1198929 110.206975,15.829763 L108.30253,14.4516494 C109.349059,13.0320396 110.667521,12.2592729 112.592764,12.2592729 C115.376314,12.2592729 117.008696,13.9505646 117.008696,16.4352405 L117.008696,22.6155472 L115.062395,22.6155472 L114.790331,21.1539194 C113.911356,22.4273794 112.864958,22.8242021 111.504509,22.8242021 C109.558208,22.8242021 107.779331,21.5716206 107.779331,19.5670204 Z M114.622907,18.3353175 L112.111551,18.3353175 C110.98131,18.3353175 110.332543,18.9199164 110.332543,19.5670204 C110.332543,20.2353945 111.002238,20.7154702 111.965055,20.7154702 C113.388157,20.7154702 114.581051,19.608908 114.622907,18.3353175 Z M92.7864941,12.4265361 L95.4443462,12.4265361 L97.1814985,18.8154976 L99.1068717,12.4265361 L101.241655,12.4265361 L103.167029,18.7946191 L104.925109,12.4265361 L107.582961,12.4265361 L104.422707,22.6155211 L102.183414,22.6155211 L100.174198,15.9342601 L98.165113,22.6572782 L95.9258203,22.6572782 L92.7864941,12.4265361 Z M85.7194982,8.20908546 L87.6659301,8.20908546 L93.4212525,22.6155342 L90.6167738,22.6155342 L89.5075914,19.4834933 L83.8987649,19.4834933 L82.7685237,22.6155342 L79.9432479,22.6155342 L85.7194982,8.20908546 Z M88.6284859,17.2704993 L86.7031128,12.0297265 L84.7777396,17.2704993 L88.6284859,17.2704993 Z M69.6323643,8.20902021 L72.1857074,8.20902021 L72.1857074,13.5122981 C72.9391143,12.5516246 73.8808729,12.1969505 74.8644875,12.1969505 C77.773606,12.1969505 78.8409325,14.430823 78.8409325,16.644078 L78.8409325,22.6154689 L76.3085174,22.6154689 L76.3085174,16.7694797 C76.3085174,15.5373853 75.9736699,14.6397389 74.6762666,14.6397389 C73.4413856,14.6397389 72.4367122,15.4747497 72.1857074,16.4770498 L72.1857074,22.6154689 L69.6323643,22.6154689 L69.6323643,8.20902021 Z M59.6666746,19.9639083 L61.6548317,19.0868794 C61.9268953,19.8176281 62.4710225,20.7572925 63.8314713,20.7572925 C64.9825096,20.7572925 65.4846501,20.089049 65.4846501,19.5462071 C65.4846501,17.8342979 60.3572976,18.9614777 60.3572976,15.3913791 C60.3572976,13.2408902 62.2200177,12.2802167 64.0406202,12.2802167 C65.9242683,12.2802167 67.2010052,13.3244043 67.8707002,14.5143502 L66.091692,15.4747627 C65.7359165,14.8485372 65.1708614,14.2429293 64.061679,14.2429293 C63.2453574,14.2429293 62.7432169,14.5771163 62.7432169,15.0571921 C62.7432169,16.6022035 67.9333533,15.6836786 67.9333533,19.4210664 C67.9333533,21.7803407 65.8824123,22.8242673 63.9570391,22.8242673 C61.8013275,22.8242673 60.1689459,21.5297983 59.6666746,19.9639083 Z M49.3535152,19.5670204 C49.3535152,17.2287552 51.2579604,16.5395027 53.5392399,16.5395027 L56.197092,16.5395027 C56.197092,15.2450336 55.5692529,14.4307708 54.0833671,14.4307708 C53.0578966,14.4307708 52.1787911,15.1198929 51.7811596,15.829763 L49.8767144,14.4516494 C50.9231129,13.0320396 52.241575,12.2592729 54.167079,12.2592729 C56.9504989,12.2592729 58.5830113,13.9505646 58.5830113,16.4352405 L58.5830113,22.6155472 L56.6365793,22.6155472 L56.3645157,21.1539194 C55.485541,22.4273794 54.4391426,22.8242021 53.0788245,22.8242021 C51.1323926,22.8242021 49.3535152,21.5716206 49.3535152,19.5670204 Z M56.197092,18.3353175 L53.6857357,18.3353175 C52.5556253,18.3353175 51.9067275,18.9199164 51.9067275,19.5670204 C51.9067275,20.2353945 52.5764225,20.7154702 53.5392399,20.7154702 C54.9623418,20.7154702 56.155236,19.608908 56.197092,18.3353175 Z M31,18.5440506 L33.5741402,17.8966856 C33.741564,19.5043326 34.9763142,20.3813615 36.5251147,20.3813615 C38.0528565,20.3813615 38.9109032,19.6925004 38.9109032,18.3980314 C38.9109032,15.9133555 31.9626866,16.4353188 31.9626866,11.8627896 C31.9626866,9.48263682 34.0345556,8 36.3995469,8 C38.2621362,8 39.8735898,8.7727667 40.8573352,10.5265635 L38.7016235,11.841911 C38.1993523,10.86062 37.3413055,10.2968996 36.3995469,10.2968996 C35.4159323,10.2968996 34.5997415,11.0066392 34.5997415,11.8836681 C34.5997415,14.1803067 41.5479582,13.6583434 41.5479582,18.4395275 C41.5479582,21.1329887 39.2876067,22.7823928 36.5251147,22.7823928 C33.9717716,22.7823928 31.4604153,21.3835311 31,18.5440506 Z M43.4207367,19.7967104 L43.4207367,14.6813393 L41.7672964,14.6813393 L41.7672964,12.4265883 L43.4625927,12.4265883 L43.4625927,9.90002479 L45.8065252,8.12547998 L45.8065252,12.4265883 L48.4645081,12.4265883 L48.4645081,14.6813393 L45.8065252,14.6813393 L45.8065252,19.7758319 C45.8065252,20.2769167 46.1413727,20.6109732 46.9157076,20.6109732 C47.7318984,20.6109732 48.4645081,20.2561686 48.4645081,20.2561686 L48.4645081,22.5110502 C48.4645081,22.5110502 47.6483173,22.8242282 46.622716,22.8242282 C44.613631,22.8242282 43.4207367,21.6548998 43.4207367,19.7967104 Z" id="Combined-Shape" fill="#FFFFFF"></path>
        <path d="M15.3752944,17.1383867 C15.3752944,17.8650245 13.64319,18.4540446 11.5064416,18.4540446 C9.36969322,18.4540446 7.6375888,17.8650245 7.6375888,17.1383867 L7.6375888,15.8227289 C7.6375888,15.0960911 9.36969322,14.5070711 11.5064416,14.5070711 C13.64319,14.5070711 15.3752944,15.0960911 15.3752944,15.8227289 L15.3752944,17.1383867 Z M15.3752944,20.2111056 C15.3752944,20.9377434 13.64319,21.5267634 11.5064416,21.5267634 C9.36969322,21.5267634 7.6375888,20.9377434 7.6375888,20.2111056 L7.6375888,18.8134823 L7.64608759,18.8134823 C7.7230841,19.5170961 9.42360346,20.0795398 11.5112618,20.0795398 C13.5836984,20.0795398 15.2753384,19.5253847 15.3752944,18.829007 L15.3752944,20.2111056 Z M7.6375888,21.8394953 C7.7230841,22.5431091 9.42360346,23.1055528 11.5112618,23.1055528 C13.5836984,23.1055528 15.2753384,22.5513977 15.3752944,21.85502 L15.3752944,23.3022436 L19.1807233,23.2867189 L19.1807233,12.7614563 L21.7348004,12.7614563 C23.0823028,12.7614563 23.4052569,11.9270661 22.4523775,10.9387439 L12.2175494,0.310333769 C11.8229264,-0.099098946 11.1771451,-0.105545669 10.7823953,0.30375548 L0.547567233,10.9420331 C-0.405185334,11.9302237 -0.0823581094,12.7614563 1.26514429,12.7614563 L3.95900746,12.7614563 L3.95900746,23.2867189 L7.6375888,23.2867189 L7.6375888,24.6843422 C7.6375888,25.41098 9.36969322,26 11.5064416,26 C13.64319,26 15.3752944,25.41098 15.3752944,24.6843422 L15.3752944,23.3022436 C15.2753384,23.9986213 13.5836984,24.5527764 11.5112618,24.5527764 C9.42360346,24.5527764 7.71445846,23.9903327 7.6375888,23.2867189 L7.6375888,21.8394953 Z" id="Fill-20" fill="#FFFFFF"></path>
    </g>
</svg>